<svg xmlns="http://www.w3.org/2000/svg" viewBox="0 0 330.91 122.01"><defs><style>.cls-1{fill:#be1e2d;}</style></defs><g id="Capa_2" data-name="Capa 2"><g id="graphics"><path class="cls-1" d="M124.44,25.46H251.58s-3-5.18-10.72-11.87S227.32,4.67,211.48,2C194.3-.84,136.42-.09,128.06.81c-7,.76-8.91,2.86-9.73,4.07-1.54,2.28-1.49,4.59-1.1,7.79a63.42,63.42,0,0,0,1.4,7.06C119.94,25.25,122.92,25.46,124.44,25.46Z"/><path class="cls-1" d="M261.75,29.18c2.5,0,12.53-2.26,14.78-5s-1.75-5.76-4.76-7.27-8.1-4.26-12.57-2c0,0-.71,0-1.46,3.51S259.24,29.18,261.75,29.18Z"/><path class="cls-1" d="M59,37.88c4.43,1.92,41.63-12.11,41.63-12.11s4.55-1.3,7.26-7.52c2.06-4.7,5-11,2.69-13.65-.46-.54-1.85-1.94-6-.42A115.89,115.89,0,0,0,70.28,23.23C61,30.77,54.62,36,59,37.88Z"/><path class="cls-1" d="M51.59,34.08C51.7,35.56,58.28,23,76.91,12c2.62-1.56-6.61-.24-15.35,2.07-4.47,1.18-13.78,3.16-14.69,6.31C46,23.27,48.3,26,49.11,27.12A17.12,17.12,0,0,1,51.59,34.08Z"/><path class="cls-1" d="M287.74,112.68c4.34-.63,5.46-6.76,5.79-7.5,4.21-.05,4.94,0,6.59,0,3,0,2.75-5.82,3.2-17.57.21-5.37,1-11.89.44-23.71-.71-14.06-10.67-27.81-18.72-28-12-.24-18.48,2.88-23.59,15.44,2-.06,27.55,0,29.94,2.4s2.39,8.92,2.39,8.92-26.89-.7-35.11-.16c-1.65,10.69-2.51,21.07-18.76,23-25.64,3-50.82,2-59.11-12.15a78.28,78.28,0,0,0-6.91-10.18c-14.1-.14-38.68.36-40,.36-1.74,0-2.61-3.7-3-6.31-.7-4.24,1.52-3.63,31.61-5.36C155,46,144.9,40.06,130.94,35.49c-33.88-11.1-42.13-3.92-47.16,7.18-4,8.78-4.51,18-4,28.86.1,1.94,0,8.25,0,8.92C72.25,80,59.38,81.09,58.7,67s1.6-18.82,1.6-19.69-10.76-1.09-8.24-7.39-11.15.8-14.2,3a8.67,8.67,0,0,0-5,6.31,43.62,43.62,0,0,0-.51,6.26C28.69,58.27,26,69.84,26,83.71c0,9.88,1.38,18.59,3.5,23.78.61,1.52,2.35,4.67,3.88,5.58C12.42,114,0,115.17,0,116.43,0,119.51,74.08,122,165.45,122s165.46-2.5,165.46-5.58C330.91,115,314.56,113.67,287.74,112.68ZM92.24,51.53c3.61,0,6.53,11.61,6.53,25.93s-2.92,25.93-6.53,25.93-6.53-11.61-6.53-25.93S88.64,51.53,92.24,51.53ZM30.82,83.71c0-12.31,2.51-22.29,5.61-22.29S42,71.4,42,83.71,39.53,106,36.43,106,30.82,96,30.82,83.71Zm35,19.58c6.1.31,12.27.49,17.68.6,1.25,3.49,2.74,6.13,4.4,7.62-9.45.17-18.35.37-26.59.59C63,111,64.61,107.83,65.78,103.29Zm51.77,7.8a14.28,14.28,0,0,0,2.2-4c15.44-.1,90.34-.93,138.64-1.48,1.23,3,2.68,5.18,4.26,6.35-27.29-.67-60.87-1.06-97.2-1.06C148.79,110.86,132.71,110.94,117.55,111.09Z"/></g></g></svg>